<mxfile modified="2023-10-30T08:34:17.479Z" host="app.diagrams.net" agent="Mozilla/5.0 (Windows NT 10.0; Win64; x64) AppleWebKit/537.36 (KHTML, like Gecko) Chrome/118.0.0.0 Safari/537.36 Edg/118.0.2088.69" etag="XmBEn6oAwy-40ha8MufZ" version="21.7.5" type="github">
  <diagram id="f106602c-feb2-e66a-4537-3a34d633f6aa" name="Page-1">
    <mxGraphModel dx="1386" dy="793" grid="1" gridSize="10" guides="1" tooltips="1" connect="1" arrows="1" fold="1" page="1" pageScale="1" pageWidth="1169" pageHeight="827" background="none" math="0" shadow="0">
      <root>
        <mxCell id="0" />
        <mxCell id="1" parent="0" />
        <mxCell id="1000" style="edgeStyle=orthogonalEdgeStyle;rounded=0;elbow=vertical;html=1;labelBackgroundColor=none;startFill=1;startSize=4;endArrow=blockThin;endFill=1;endSize=4;jettySize=auto;orthogonalLoop=1;strokeColor=#4284F3;strokeWidth=2;fontSize=12;fontColor=#000000;align=left;dashed=0;entryX=0;entryY=0.5;entryDx=0;entryDy=0;exitX=1;exitY=0.5;exitDx=0;exitDy=0;" parent="1" source="4BZOkhk_A17fmR11uYbG-1010" target="4BZOkhk_A17fmR11uYbG-1008" edge="1">
          <mxGeometry relative="1" as="geometry">
            <mxPoint x="110" y="273.16999999999996" as="targetPoint" />
          </mxGeometry>
        </mxCell>
        <mxCell id="1001" style="edgeStyle=orthogonalEdgeStyle;rounded=0;elbow=vertical;html=1;labelBackgroundColor=none;startFill=1;startSize=4;endArrow=blockThin;endFill=1;endSize=4;jettySize=auto;orthogonalLoop=1;strokeColor=#4284F3;strokeWidth=2;fontSize=12;fontColor=#000000;align=left;dashed=0;exitX=1;exitY=0.5;exitDx=0;exitDy=0;entryX=0.005;entryY=0.553;entryDx=0;entryDy=0;entryPerimeter=0;" parent="1" source="4BZOkhk_A17fmR11uYbG-1010" target="4BZOkhk_A17fmR11uYbG-1013" edge="1">
          <mxGeometry relative="1" as="geometry">
            <mxPoint x="335" y="580" as="targetPoint" />
          </mxGeometry>
        </mxCell>
        <mxCell id="4BZOkhk_A17fmR11uYbG-1021" style="edgeStyle=orthogonalEdgeStyle;rounded=0;orthogonalLoop=1;jettySize=auto;html=1;entryX=0;entryY=0.5;entryDx=0;entryDy=0;fillColor=#0050ef;strokeColor=#001DBC;strokeWidth=2;" edge="1" parent="1" source="4BZOkhk_A17fmR11uYbG-1008" target="4BZOkhk_A17fmR11uYbG-1017">
          <mxGeometry relative="1" as="geometry" />
        </mxCell>
        <mxCell id="4BZOkhk_A17fmR11uYbG-1008" value="" style="strokeColor=#dddddd;fillColor=#ffffff;shadow=1;strokeWidth=1;rounded=1;absoluteArcSize=1;arcSize=2;fontSize=11;fontColor=#9E9E9E;align=center;html=1;" vertex="1" parent="1">
          <mxGeometry x="490" y="80" width="400" height="150" as="geometry" />
        </mxCell>
        <mxCell id="4BZOkhk_A17fmR11uYbG-1009" value="&lt;b&gt;&lt;font style=&quot;&quot;&gt;&lt;font style=&quot;font-size: 18px;&quot;&gt;wowza-ori&lt;/font&gt;&lt;br&gt;&lt;/font&gt;&lt;/b&gt;&lt;hr&gt;ori.k8s-digi.iguidevietnam.com:80 =&amp;gt;&amp;nbsp;&amp;nbsp;10.102.64.154:8088&lt;br&gt;ori.k8s-digi.iguidevietnam.com:8086 =&amp;gt;&amp;nbsp; 10.109.131.136:8086&lt;br&gt;ori.k8s-digi.iguidevietnam.com:8087 =&amp;gt;&amp;nbsp; 10.109.131.136:8087&lt;br&gt;ori.k8s-digi.iguidevietnam.com:1936 =&amp;gt;&amp;nbsp; 10.109.131.136:1935&lt;br&gt;&lt;br style=&quot;border-color: var(--border-color);&quot;&gt;&lt;hr style=&quot;border-color: var(--border-color);&quot;&gt;ori.k8s-digi.iguidevietnam.com:1935 =&amp;gt;&amp;nbsp;10.102.64.154:1935&amp;nbsp;" style="dashed=0;connectable=0;html=1;fillColor=#5184F3;strokeColor=none;shape=mxgraph.gcp2.hexIcon;prIcon=container_engine;part=1;labelPosition=right;verticalLabelPosition=middle;align=left;verticalAlign=top;spacingLeft=5;fontColor=#999999;fontSize=12;spacingTop=-8;" vertex="1" parent="4BZOkhk_A17fmR11uYbG-1008">
          <mxGeometry width="44" height="39" relative="1" as="geometry">
            <mxPoint x="5" y="7" as="offset" />
          </mxGeometry>
        </mxCell>
        <mxCell id="4BZOkhk_A17fmR11uYbG-1010" value="" style="strokeColor=#dddddd;fillColor=#ffffff;shadow=1;strokeWidth=1;rounded=1;absoluteArcSize=1;arcSize=2;fontSize=11;fontColor=#9E9E9E;align=center;html=1;" vertex="1" parent="1">
          <mxGeometry x="20" y="230" width="390" height="82.75" as="geometry" />
        </mxCell>
        <mxCell id="4BZOkhk_A17fmR11uYbG-1011" value="&lt;b&gt;&lt;font style=&quot;font-size: 18px;&quot;&gt;gateway-service&lt;/font&gt;&lt;/b&gt;&lt;br&gt;&lt;hr&gt;gateway.k8s-digi.iguidevietnam.com:80 -&amp;gt;&amp;nbsp;10.106.162.166:80&amp;nbsp;" style="dashed=0;connectable=0;html=1;fillColor=#5184F3;strokeColor=none;shape=mxgraph.gcp2.hexIcon;prIcon=container_engine;part=1;labelPosition=right;verticalLabelPosition=middle;align=left;verticalAlign=top;spacingLeft=5;fontColor=#999999;fontSize=12;spacingTop=-8;" vertex="1" parent="4BZOkhk_A17fmR11uYbG-1010">
          <mxGeometry width="44" height="39" relative="1" as="geometry">
            <mxPoint x="5" y="7" as="offset" />
          </mxGeometry>
        </mxCell>
        <mxCell id="4BZOkhk_A17fmR11uYbG-1022" style="edgeStyle=orthogonalEdgeStyle;rounded=0;orthogonalLoop=1;jettySize=auto;html=1;entryX=0;entryY=0.5;entryDx=0;entryDy=0;fillColor=#0050ef;strokeColor=#001DBC;strokeWidth=2;" edge="1" parent="1" source="4BZOkhk_A17fmR11uYbG-1013" target="4BZOkhk_A17fmR11uYbG-1019">
          <mxGeometry relative="1" as="geometry" />
        </mxCell>
        <mxCell id="4BZOkhk_A17fmR11uYbG-1013" value="" style="strokeColor=#dddddd;fillColor=#ffffff;shadow=1;strokeWidth=1;rounded=1;absoluteArcSize=1;arcSize=2;fontSize=11;fontColor=#9E9E9E;align=center;html=1;" vertex="1" parent="1">
          <mxGeometry x="490" y="300" width="400" height="150" as="geometry" />
        </mxCell>
        <mxCell id="4BZOkhk_A17fmR11uYbG-1014" value="&lt;b&gt;&lt;font style=&quot;&quot;&gt;&lt;font style=&quot;font-size: 18px;&quot;&gt;wowza-ori-2&lt;/font&gt;&lt;br&gt;&lt;/font&gt;&lt;/b&gt;&lt;hr&gt;ori2.k8s-digi.iguidevietnam.com:80 =&amp;gt;&amp;nbsp;&amp;nbsp;10.103.79.171:8088&lt;br&gt;ori2.k8s-digi.iguidevietnam.com:8096 =&amp;gt;&amp;nbsp; 10.107.106.143:8086&lt;br&gt;ori2.k8s-digi.iguidevietnam.com:8097 =&amp;gt;&amp;nbsp; 10.107.106.143:8087&lt;br&gt;ori2.k8s-digi.iguidevietnam.com:1938 =&amp;gt;&amp;nbsp; 10.107.106.143:1935&lt;br&gt;&lt;br style=&quot;border-color: var(--border-color);&quot;&gt;&lt;hr style=&quot;border-color: var(--border-color);&quot;&gt;ori2.k8s-digi.iguidevietnam.com:1937 =&amp;gt;10.107.106.143:1935&amp;nbsp;" style="dashed=0;connectable=0;html=1;fillColor=#5184F3;strokeColor=none;shape=mxgraph.gcp2.hexIcon;prIcon=container_engine;part=1;labelPosition=right;verticalLabelPosition=middle;align=left;verticalAlign=top;spacingLeft=5;fontColor=#999999;fontSize=12;spacingTop=-8;" vertex="1" parent="4BZOkhk_A17fmR11uYbG-1013">
          <mxGeometry width="44" height="39" relative="1" as="geometry">
            <mxPoint x="5" y="7" as="offset" />
          </mxGeometry>
        </mxCell>
        <mxCell id="4BZOkhk_A17fmR11uYbG-1017" value="" style="strokeColor=#dddddd;fillColor=#ffffff;shadow=1;strokeWidth=1;rounded=1;absoluteArcSize=1;arcSize=2;fontSize=11;fontColor=#9E9E9E;align=center;html=1;" vertex="1" parent="1">
          <mxGeometry x="950" y="80" width="410" height="150" as="geometry" />
        </mxCell>
        <mxCell id="4BZOkhk_A17fmR11uYbG-1018" value="&lt;b&gt;&lt;font style=&quot;&quot;&gt;&lt;font style=&quot;font-size: 18px;&quot;&gt;wowza-edge&lt;/font&gt;&lt;br&gt;&lt;/font&gt;&lt;/b&gt;&lt;hr&gt;edge.k8s-digi.iguidevietnam.com:80 =&amp;gt;&amp;nbsp;&amp;nbsp;10.109.211.198:8088&lt;br&gt;edge.k8s-digi.iguidevietnam.com:8096 =&amp;gt;&amp;nbsp; 10.101.69.190:8086&lt;br&gt;edge.k8s-digi.iguidevietnam.com:8097 =&amp;gt;&amp;nbsp; 10.101.69.190:8087&lt;br&gt;edge.k8s-digi.iguidevietnam.com:1955 =&amp;gt;&amp;nbsp;&amp;nbsp;10.101.69.190:1935&lt;br&gt;&lt;br style=&quot;border-color: var(--border-color);&quot;&gt;&lt;hr style=&quot;border-color: var(--border-color);&quot;&gt;edge.k8s-digi.iguidevietnam.com:1945 =&amp;gt; 118.107.78.* :1935&amp;nbsp;" style="dashed=0;connectable=0;html=1;fillColor=#5184F3;strokeColor=none;shape=mxgraph.gcp2.hexIcon;prIcon=container_engine;part=1;labelPosition=right;verticalLabelPosition=middle;align=left;verticalAlign=top;spacingLeft=5;fontColor=#999999;fontSize=12;spacingTop=-8;" vertex="1" parent="4BZOkhk_A17fmR11uYbG-1017">
          <mxGeometry width="44" height="39" relative="1" as="geometry">
            <mxPoint x="5" y="7" as="offset" />
          </mxGeometry>
        </mxCell>
        <mxCell id="4BZOkhk_A17fmR11uYbG-1019" value="" style="strokeColor=#dddddd;fillColor=#ffffff;shadow=1;strokeWidth=1;rounded=1;absoluteArcSize=1;arcSize=2;fontSize=11;fontColor=#9E9E9E;align=center;html=1;" vertex="1" parent="1">
          <mxGeometry x="950" y="300" width="410" height="150" as="geometry" />
        </mxCell>
        <mxCell id="4BZOkhk_A17fmR11uYbG-1020" value="&lt;b&gt;&lt;font style=&quot;&quot;&gt;&lt;font style=&quot;font-size: 18px;&quot;&gt;wowza-edge-2&lt;/font&gt;&lt;br&gt;&lt;/font&gt;&lt;/b&gt;&lt;hr&gt;edge2.k8s-digi.iguidevietnam.com:80 =&amp;gt; 10.102.198.81:8088&lt;br&gt;edge2.k8s-digi.iguidevietnam.com:8096 =&amp;gt; 10.104.153.118:8086&lt;br&gt;edge2.k8s-digi.iguidevietnam.com:8097 =&amp;gt;&amp;nbsp;10.104.153.118:8087&lt;br&gt;edge2.k8s-digi.iguidevietnam.com:1955 =&amp;gt; 10.104.153.118:1935&lt;br&gt;&lt;br style=&quot;border-color: var(--border-color);&quot;&gt;&lt;hr style=&quot;border-color: var(--border-color);&quot;&gt;edge2.k8s-digi.iguidevietnam.com:1947 =&amp;gt; 118.107.78.* :1935&amp;nbsp;" style="dashed=0;connectable=0;html=1;fillColor=#5184F3;strokeColor=none;shape=mxgraph.gcp2.hexIcon;prIcon=container_engine;part=1;labelPosition=right;verticalLabelPosition=middle;align=left;verticalAlign=top;spacingLeft=5;fontColor=#999999;fontSize=12;spacingTop=-8;" vertex="1" parent="4BZOkhk_A17fmR11uYbG-1019">
          <mxGeometry width="44" height="39" relative="1" as="geometry">
            <mxPoint x="5" y="7" as="offset" />
          </mxGeometry>
        </mxCell>
      </root>
    </mxGraphModel>
  </diagram>
</mxfile>
